<svg width="31" height="28" viewBox="0 0 31 28" fill="none" xmlns="http://www.w3.org/2000/svg">
<path fill-rule="evenodd" clip-rule="evenodd" d="M13.3341 1.683C8.71642 -0.992353 1.93728 -0.249853 1.09107 7.458C0.242498 15.1894 4.59378 23.3711 6.925 26.5037C7.45535 27.2156 8.31335 27.5574 9.202 27.5574C10.6564 27.5574 11.9575 26.6451 12.4501 25.2733L13.2751 22.9845C13.4402 22.527 13.7423 22.1315 14.1402 21.852C14.5382 21.5725 15.0128 21.4225 15.4991 21.4225C15.9855 21.4225 16.46 21.5725 16.858 21.852C17.256 22.1315 17.558 22.527 17.7231 22.9845L18.5481 25.2733C19.0431 26.6451 20.3442 27.5574 21.8009 27.5574C22.6872 27.5574 23.5452 27.2156 24.0732 26.5037C26.4068 23.3711 30.7604 15.1894 29.9095 7.458C29.0633 -0.249853 22.2841 -0.992353 17.6641 1.683C16.2145 2.5245 14.7884 2.5245 13.3341 1.683ZM18.9205 5.68779C19.1027 5.61895 19.2968 5.58694 19.4915 5.59361C19.6862 5.60028 19.8776 5.64549 20.0547 5.72664C20.2318 5.80779 20.3911 5.92325 20.5233 6.06635C20.6555 6.20945 20.7579 6.37735 20.8248 6.56032C20.8917 6.7433 20.9216 6.93771 20.9128 7.13232C20.904 7.32693 20.8567 7.51787 20.7737 7.69408C20.6906 7.8703 20.5734 8.02829 20.4289 8.15891C20.2844 8.28953 20.1154 8.3902 19.9317 8.45508C18.2464 9.06793 16.8203 9.4215 15.373 9.41679C13.9163 9.41443 12.568 9.05143 11.0288 8.44093C10.8489 8.36943 10.6849 8.2632 10.5461 8.12831C10.4074 7.99343 10.2965 7.83253 10.2199 7.6548C10.1433 7.47706 10.1024 7.28598 10.0997 7.09247C10.0969 6.89895 10.1323 6.70678 10.2038 6.52693C10.2753 6.34709 10.3815 6.18309 10.5164 6.0443C10.6513 5.9055 10.8122 5.79464 10.9899 5.71803C11.1677 5.64142 11.3587 5.60057 11.5522 5.59781C11.7458 5.59505 11.9379 5.63043 12.1178 5.70193C13.4779 6.24408 14.4396 6.468 15.3801 6.47036C16.33 6.47272 17.3813 6.24879 18.9205 5.68779Z" fill="white"/>
</svg>
