<svg width="278" height="22" viewBox="0 0 278 22" fill="none" xmlns="http://www.w3.org/2000/svg">
<path d="M266.4 3.10319C265.401 3.18467 264.401 3.24579 263.408 3.34764L259.279 3.76864C256.986 3.99629 254.712 4.39349 252.477 4.95695C250.1 5.56144 247.803 6.44586 245.635 7.59161C245.2 7.81569 244.778 8.06014 244.329 8.27064L242.887 8.94968C242.207 9.22129 241.527 9.47932 240.846 9.69661C240.032 9.94601 239.2 10.1344 238.357 10.2602C237.627 10.3363 236.894 10.3748 236.16 10.3756C235.464 10.3746 234.769 10.3292 234.079 10.2398C233.133 10.0864 232.197 9.87782 231.276 9.61513C230.31 9.32248 229.361 8.97562 228.433 8.57621C226.838 7.85872 225.291 7.03994 223.801 6.12489C223.121 5.70389 222.4 5.2761 221.713 4.82794C220.883 4.28471 220.06 3.74148 219.203 3.239C218.55 2.84813 217.868 2.50763 217.163 2.22044C216.706 2.04721 216.238 1.90431 215.762 1.79265C215.278 1.69669 214.786 1.64442 214.292 1.63647C213.998 1.63973 213.705 1.66698 213.415 1.71796C212.994 1.78238 212.578 1.8777 212.17 2.00315C211.531 2.22754 210.913 2.51173 210.327 2.85195L206.729 4.76682C205.205 5.57487 203.668 6.36255 202.097 7.04838C201.138 7.43543 200.165 7.77494 199.172 8.07372C197.864 8.442 196.532 8.72329 195.186 8.91572C193.896 9.08099 192.597 9.17168 191.296 9.18734C189.816 9.17767 188.338 9.06193 186.875 8.84103C185.031 8.57621 183.202 8.20953 181.393 7.76815C179.714 7.3765 178.067 6.85664 176.468 6.21317C174.878 5.52391 173.323 4.75564 171.809 3.91124C170.098 2.9455 168.312 2.11675 166.47 1.43276C165.73 1.18198 164.973 0.984554 164.205 0.842003C163.309 0.665371 162.397 0.585691 161.484 0.604342C159.659 0.691728 157.876 1.18593 156.267 2.05068C154.307 3.12434 152.452 4.37684 150.724 5.79216C149.656 6.58663 148.615 7.43543 147.561 8.25706C146.683 8.93609 145.813 9.61513 144.888 10.2195C143.923 10.8514 142.909 11.4033 141.854 11.8695C141.364 12.0664 140.875 12.243 140.371 12.406C139.703 12.6024 139.021 12.7477 138.331 12.8405C138.059 12.8405 137.787 12.8813 137.521 12.8881C137.256 12.8949 137.134 12.8881 136.936 12.8881C136.393 12.7701 135.859 12.6136 135.338 12.4195C133.467 11.4873 131.687 10.3849 130.019 9.12622C129.223 8.48793 128.448 7.82927 127.7 7.12986L126.129 5.67673C124.84 4.33016 123.478 3.05613 122.048 1.86055C121.436 1.39642 120.782 0.989546 120.095 0.645083C119.702 0.45983 119.292 0.312051 118.871 0.203711L118.463 0.115436L117.606 0H117.184H117.028C116.77 8.88089e-05 116.513 0.0205238 116.259 0.0611132C115.764 0.129323 115.274 0.23834 114.797 0.387049C113.864 0.658092 112.948 0.986929 112.056 1.37165C111.314 1.6908 110.587 2.05069 109.859 2.38341C109.342 2.62107 108.818 2.85195 108.322 3.12356L105.934 4.42731C105.54 4.6446 105.138 4.84831 104.758 5.10634L102.629 6.46441C102.098 6.80393 101.554 7.14344 101.03 7.47617L97.092 10.0769C94.304 12.0462 91.3447 13.7619 88.2498 15.2036C87.5696 15.482 86.8894 15.7468 86.1412 15.9777C85.2524 16.2577 84.3426 16.4666 83.4205 16.6024C83.0351 16.6477 82.6474 16.6816 82.2574 16.7043C81.6829 16.7291 81.1074 16.7064 80.5366 16.6363C79.7207 16.5035 78.9191 16.2943 78.1424 16.0116C77.3024 15.6063 76.4991 15.1292 75.7414 14.5857C74.5634 13.5963 73.4502 12.5326 72.4085 11.401C71.8848 10.8442 71.3475 10.301 70.8169 9.75094C70.1776 9.0719 69.4566 8.48114 68.7764 7.89038C67.8831 7.11526 66.842 6.52858 65.7156 6.16563C65.3035 6.04898 64.8787 5.98286 64.4505 5.96871C64.1769 5.98133 63.9043 6.01082 63.6343 6.05699C63.2449 6.14734 62.8663 6.27938 62.5052 6.45083C62.1404 6.62704 61.8035 6.85583 61.5054 7.12986C61.1993 7.42185 60.9204 7.72062 60.6348 8.02619C60.1042 8.61016 59.6281 9.25524 59.1316 9.87316L57.9617 11.3399C57.506 11.9035 57.0299 12.4603 56.5673 13.0171C55.6445 14.1207 54.6147 15.1305 53.493 16.032C52.6386 16.6544 51.7277 17.1954 50.7723 17.6481C49.891 17.9758 48.9798 18.2169 48.0516 18.3679C46.7429 18.5139 45.422 18.5139 44.1134 18.3679C42.0412 18.0123 40.0168 17.4199 38.0803 16.6024C36.3143 15.8138 34.5972 14.9204 32.9381 13.927C32.0811 13.4109 31.2513 12.8541 30.4283 12.2973C29.6053 11.7405 28.7619 11.1701 27.9389 10.5929C27.1159 10.0158 26.2929 9.41821 25.429 8.88177C24.5541 8.33193 23.6454 7.83752 22.7084 7.40148C20.9837 6.56054 19.0911 6.1195 17.1718 6.11131C16.7153 6.12371 16.2605 6.17138 15.8114 6.25391C15.3421 6.33539 14.8932 6.43046 14.4511 6.55268C14.0454 6.68007 13.6479 6.832 13.2608 7.00764C12.8323 7.19098 12.4106 7.37431 11.9956 7.56444C10.1518 8.39468 8.38352 9.38299 6.71071 10.5182C5.20373 11.5189 3.80825 12.6776 2.54805 13.9745C1.97671 14.5857 1.43257 15.2036 0.922442 15.869C0.686893 16.1765 0.498887 16.5176 0.364701 16.8808L0.215062 17.3222C0.153847 17.6277 0.0994315 17.9401 0.038216 18.2524C-0.0132472 18.4491 -0.0127252 18.6557 0.0397312 18.8521C0.0921876 19.0485 0.194785 19.2279 0.337493 19.3729C0.480731 19.5183 0.660392 19.6227 0.857773 19.6752C1.05515 19.7278 1.26304 19.7265 1.45978 19.6716L2.28959 19.434C2.67769 19.3107 3.05341 19.1516 3.41187 18.9586C3.67563 18.8042 3.86737 18.5517 3.94512 18.2565C4.02288 17.9612 3.98032 17.6473 3.82678 17.3833C3.75361 17.2556 3.65583 17.1437 3.53909 17.0539C3.42235 16.9642 3.28895 16.8984 3.1466 16.8604C4.15674 15.6958 5.27746 14.6315 6.49305 13.6825C8.43031 12.2383 10.5305 11.0259 12.7506 10.0701C13.254 9.86637 13.7573 9.65587 14.2674 9.46574C14.8997 9.2276 15.5568 9.06133 16.2263 8.97005C16.8126 8.92252 17.4017 8.92252 17.988 8.97005C18.3795 9.03197 18.7677 9.11356 19.1511 9.2145C19.7164 9.37022 20.2708 9.56304 20.8107 9.79168C21.8623 10.2866 22.8782 10.8539 23.851 11.4893C24.9937 12.209 26.048 13.0646 27.1499 13.8591C28.2518 14.6536 29.3196 15.4073 30.4283 16.1474C31.537 16.8876 32.6729 17.5598 33.8292 18.1845C36.0745 19.4423 38.4541 20.4445 40.9234 21.1723C43.4611 21.9561 46.1376 22.1877 48.7726 21.8513C49.9945 21.6888 51.1888 21.3621 52.3231 20.8803C53.423 20.4006 54.4657 19.7993 55.4314 19.0877C56.4797 18.3093 57.4521 17.434 58.3358 16.4734C58.8051 15.9641 59.2472 15.4277 59.6961 14.8912C60.331 14.1126 60.9567 13.3249 61.5734 12.5282C62.3088 11.5223 63.1061 10.563 63.9608 9.65587L64.1581 9.54043L64.4437 9.45895H64.5389C64.714 9.49611 64.8866 9.54373 65.0559 9.60155C65.4753 9.79858 65.8799 10.0255 66.2666 10.2806C67.3409 11.1765 68.3586 12.1381 69.3138 13.1597C70.5254 14.4713 71.8036 15.7201 73.1431 16.9012C73.7357 17.3948 74.3606 17.8485 75.0136 18.2592C75.7809 18.734 76.5945 19.1298 77.4418 19.4408C78.2159 19.7228 79.0189 19.9187 79.836 20.0247C80.7972 20.1672 81.7706 20.2081 82.7404 20.147C83.5486 20.0776 84.3524 19.9643 85.1482 19.8074C86.1073 19.6152 87.0491 19.3449 87.9641 18.9994C89.685 18.3719 91.3523 17.6066 92.9498 16.711C95.2963 15.4277 97.5069 13.9134 99.7515 12.4195C100.813 11.7405 101.86 10.9664 102.935 10.2806L106.614 7.90396C106.757 7.8089 106.907 7.7342 107.057 7.65272L108.322 6.97368L110.253 5.9076C110.383 5.83291 110.519 5.77859 110.648 5.71747L112.008 5.07918C112.77 4.71929 113.525 4.40014 114.294 4.03346C115.066 3.72524 115.859 3.47333 116.667 3.27974C116.833 3.26968 116.999 3.26968 117.164 3.27974H117.579C117.914 3.35353 118.246 3.44418 118.572 3.55135C119.144 3.84082 119.694 4.17219 120.218 4.54274C121.769 5.8397 123.136 7.34716 124.619 8.7256C125.544 9.58797 126.469 10.4368 127.455 11.238C128.441 12.0393 129.278 12.5961 130.23 13.2751C131.182 13.9542 132.318 14.5178 133.393 15.0881C134.372 15.6097 135.44 15.9458 136.542 16.0795C137.028 16.1327 137.516 16.1486 138.004 16.1271C138.636 16.0836 139.263 15.9951 139.882 15.8622C140.927 15.6512 141.946 15.3279 142.922 14.898C144.034 14.4296 145.105 13.8709 146.126 13.2276C147.525 12.2988 148.867 11.2876 150.145 10.1991L152.465 8.34534L154.315 6.93973C155.624 5.91797 157.04 5.04138 158.539 4.32545C159.282 4.05055 160.049 3.84594 160.831 3.71432C161.212 3.67358 161.586 3.65321 161.967 3.64641C162.306 3.64514 162.644 3.66784 162.98 3.71432C164.175 3.92644 165.345 4.26328 166.47 4.71929C167.454 5.14935 168.419 5.60204 169.367 6.07736C169.959 6.38972 170.537 6.75639 171.122 7.04838C171.707 7.34036 172.278 7.65272 172.87 7.93791C173.992 8.49472 175.142 9.01079 176.305 9.47932C177.535 9.96132 178.794 10.3695 180.073 10.7016C182.734 11.4099 185.444 11.9228 188.181 12.2362C189.562 12.3912 190.953 12.4479 192.343 12.406C193.71 12.3498 195.073 12.2161 196.424 12.0053C198.863 11.6488 201.246 10.9777 203.512 10.009C204.967 9.39105 206.368 8.6509 207.776 7.97187C209.463 7.11628 211.123 6.20638 212.837 5.41191C213.184 5.29647 213.517 5.20819 213.878 5.12671C214.086 5.11313 214.295 5.11313 214.503 5.12671C214.996 5.22193 215.481 5.35589 215.952 5.52734C217.458 6.33428 218.908 7.24172 220.292 8.24348C221.77 9.23816 223.305 10.1451 224.89 10.9596C226.476 11.7606 228.114 12.4548 229.794 13.0375C231.689 13.6716 233.666 14.0329 235.663 14.1103C237.426 14.177 239.189 13.9965 240.901 13.5739C242.359 13.1994 243.776 12.6807 245.131 12.0257C245.716 11.7541 246.301 11.4893 246.873 11.1837L247.975 10.5861C248.532 10.2942 249.111 10.0361 249.689 9.79168C252.496 8.72998 255.422 8.00955 258.402 7.64593C260.007 7.44222 261.626 7.33357 263.244 7.17739C264.639 7.04838 266.047 6.98048 267.448 6.8922C270.291 6.70207 273.148 6.52552 275.998 6.53231C276.528 6.53231 277.037 6.32198 277.412 5.94759C277.787 5.5732 277.997 5.06542 277.997 4.53595C277.997 4.00648 277.787 3.4987 277.412 3.12431C277.037 2.74992 276.528 2.53959 275.998 2.53959C273.835 2.53959 271.672 2.73651 269.516 2.89948L266.4 3.10319Z" fill="#21C9D3"/>
</svg>
